<svg xmlns="http://www.w3.org/2000/svg" data-name="Layer 1" viewBox="0 0 128 128" id="growth"><path d="M62.59.486a24.015 24.015 0 0 0-7.534 15.317c-.46 6.294 1.881 12.59 6.944 18.726V66a2 2 0 0 0 4 0V34.924c2.322-2.826 14.916-19.643-.731-34.38A1.999 1.999 0 0 0 62.59.487zm-10.589 34.53c-6.007-4.241-14.032-2.79-14.372-2.726a2 2 0 0 0-1.576 2.42c1.165 4.988 3.6 8.652 7.234 10.893a17.35 17.35 0 0 0 9.1 2.397 18.855 18.855 0 0 0 4.08-.413 2.001 2.001 0 0 0 1.51-2.253c-.711-4.548-2.721-8.02-5.976-10.318zM36.053 53.71c1.165 4.988 3.6 8.652 7.234 10.893a17.35 17.35 0 0 0 9.1 2.397 18.855 18.855 0 0 0 4.08-.413 2.001 2.001 0 0 0 1.51-2.253c-.711-4.548-2.721-8.02-5.976-10.318-6.007-4.241-14.032-2.79-14.372-2.727a2 2 0 0 0-1.576 2.421z"></path><path d="M91.676 33.164a2.003 2.003 0 0 0-1.305-.874c-.34-.065-8.364-1.515-14.372 2.726-3.255 2.298-5.265 5.77-5.976 10.318a2.001 2.001 0 0 0 1.51 2.253 18.855 18.855 0 0 0 4.08.413 17.35 17.35 0 0 0 9.1-2.397c3.635-2.241 6.07-5.905 7.234-10.893a2 2 0 0 0-.271-1.546zm0 19a2.003 2.003 0 0 0-1.305-.874c-.34-.064-8.364-1.516-14.372 2.726-3.255 2.298-5.265 5.77-5.976 10.318a2.001 2.001 0 0 0 1.51 2.253 18.855 18.855 0 0 0 4.08.413 17.35 17.35 0 0 0 9.1-2.397c3.635-2.241 6.07-5.905 7.234-10.893a2 2 0 0 0-.271-1.546zM56.957 80.465a8.14 8.14 0 0 0-.015 7.617c1.507 2.886 4.323 3.817 6.584 4.564 2.45.81 3.86 1.355 4.359 3.154a3.189 3.189 0 0 1-1.729 3.694 4.772 4.772 0 0 1-4.853-.58 2 2 0 1 0-2.325 3.254 9.399 9.399 0 0 0 2.928 1.392V106a2 2 0 0 0 4 0v-2.25a8.06 8.06 0 0 0 2.026-.672 7.24 7.24 0 0 0 3.81-8.34c-1.096-3.953-4.348-5.027-6.96-5.89-1.898-.627-3.538-1.17-4.296-2.621a4.116 4.116 0 0 1-.046-3.796c.972-1.728 3.166-1.94 4.746-1.597a3.902 3.902 0 0 1 1.461.703 2 2 0 0 0 2.391-3.207 7.906 7.906 0 0 0-2.998-1.403c-.047-.01-.096-.017-.143-.027.001-.032.01-.062.01-.094V74a2 2 0 0 0-4 0v2.806c0 .035.008.069.01.104a7.225 7.225 0 0 0-4.96 3.555zM22 92a2 2 0 0 0 2-2V68.811l.317.494a2 2 0 0 0 3.366-2.162l-4-6.224a2 2 0 0 0-3.366 0l-4 6.224a2 2 0 0 0 3.366 2.162l.317-.494v21.19a2 2 0 0 0 2 2zm84 0a2 2 0 0 0 2-2V68.811l.317.494a2 2 0 0 0 3.366-2.162l-4-6.224a2 2 0 0 0-3.366 0l-4 6.224a2 2 0 0 0 3.366 2.162l.317-.494v21.19a2 2 0 0 0 2 2z"></path><path d="M91.18 87.612A4.018 4.018 0 0 0 87.948 86H68.605a11.516 11.516 0 0 1 6.992 7.67 11.233 11.233 0 0 1-5.72 12.899 5.995 5.995 0 0 1-11.96-.354 13.642 13.642 0 0 1-1.264-.792 6 6 0 0 1 1.644-10.592 11.563 11.563 0 0 1-4.9-4.897A12.247 12.247 0 0 1 52.14 86H40.053a4.018 4.018 0 0 0-3.234 1.612 4.064 4.064 0 0 0-.634 3.645l11.401 33.803a4.07 4.07 0 0 0 3.895 2.94H76.52a4.04 4.04 0 0 0 3.868-2.852l11.456-33.98a4.021 4.021 0 0 0-.662-3.556Z"></path></svg>