<svg xmlns="http://www.w3.org/2000/svg" enable-background="new 0 0 64 64" viewBox="0 0 64 64" id="loss"><path d="M39,0H25c-1.103,0-2,0.897-2,2v35h-7.048c-0.754,0-1.436,0.417-1.78,1.088c-0.344,0.672-0.284,1.469,0.157,2.08l16.048,22.29c0.375,0.52,0.981,0.83,1.623,0.83s1.248-0.311,1.623-0.831l16.048-22.289c0.44-0.611,0.5-1.408,0.157-2.08C49.484,37.417,48.802,37,48.048,37H41v-1c0-0.553-0.448-1-1-1s-1,0.447-1,1v1c0,1.103,0.897,2,2,2h7.048L32,61.289L15.952,39H23c1.103,0,2-0.897,2-2V2h14v6.051C32.299,8.565,27,14.17,27,21c0,7.168,5.832,13,13,13s13-5.832,13-13c0-6.83-5.299-12.435-12-12.949V2C41,0.897,40.103,0,39,0z M51,21c0,6.065-4.935,11-11,11s-11-4.935-11-11s4.935-11,11-11S51,14.935,51,21z"></path><path d="M39 13v1.142c-1.72.447-3 1.999-3 3.858 0 2.206 1.794 4 4 4 1.103 0 2 .897 2 2s-.897 2-2 2c-.711 0-1.375-.384-1.733-1.001-.276-.479-.888-.643-1.366-.364-.478.276-.641.889-.364 1.366.543.937 1.44 1.602 2.464 1.868V29c0 .553.448 1 1 1s1-.447 1-1v-1.142c1.72-.447 3-1.999 3-3.858 0-2.206-1.794-4-4-4-1.103 0-2-.897-2-2s.897-2 2-2c.711 0 1.375.383 1.733 1 .276.479.888.643 1.366.364.478-.276.641-.889.364-1.366-.542-.937-1.44-1.601-2.463-1.867V13c0-.553-.448-1-1-1S39 12.447 39 13zM15 56c-.552 0-1 .447-1 1s.448 1 1 1h5c.552 0 1-.447 1-1s-.448-1-1-1H15zM41 57c-.552 0-1 .447-1 1s.448 1 1 1h3c.552 0 1-.447 1-1s-.448-1-1-1H41zM56 46h-6c-.552 0-1 .447-1 1s.448 1 1 1h6c.552 0 1-.447 1-1S56.552 46 56 46zM55 7c.552 0 1-.447 1-1s-.448-1-1-1h-6c-.552 0-1 .447-1 1s.448 1 1 1H55zM11 53c.552 0 1-.447 1-1s-.448-1-1-1H9c-.552 0-1 .447-1 1s.448 1 1 1H11zM59 19h-2c-.552 0-1 .447-1 1s.448 1 1 1h2c.552 0 1-.447 1-1S59.552 19 59 19zM34 20h-2c-.552 0-1 .447-1 1s.448 1 1 1h2c.552 0 1-.447 1-1S34.552 20 34 20z"></path></svg>