<svg xmlns="http://www.w3.org/2000/svg" viewBox="0 0 64 64" id="tree"><g data-name="16.Tree"><path d="M40,50.576V48.493c-.661.2-1.335.38-2,.541V51.09C38.648,50.94,39.32,50.77,40,50.576Z"></path><path d="M49.855,33.007c-.406.047-9.987,1.2-13.32,4.529-1.7,1.7-2.828,5.019-3.535,7.923V32.993c.368-.043,8.886-1.066,11.863-4.043s4-11.5,4.043-11.864l.147-1.255-1.255.147c-.361.042-8.885,1.064-11.863,4.043-1.352,1.351-2.3,3.842-2.935,6.2V15.963c1.3-.169,6.539-.961,8.576-3,2.2-2.2,2.95-8.148,3.028-8.819l.147-1.255L43.5,3.036c-.671.078-6.617.827-8.819,3.029-1.464,1.463-2.282,4.574-2.692,6.7-.409-2.124-1.228-5.235-2.691-6.7-2.2-2.2-8.149-2.951-8.82-3.029L19.219,2.89l.146,1.255c.078.671.827,6.618,3.03,8.819,2.051,2.052,7.346,2.841,8.605,3V26.329c-.638-2.386-1.591-4.935-2.964-6.308-2.978-2.979-11.5-4-11.863-4.043l-1.255-.147.146,1.255c.042.362,1.065,8.885,4.043,11.864s11.5,4,11.865,4.043L31,33V45.584c-.7-2.933-1.841-6.325-3.565-8.048C24.1,34.2,14.521,33.054,14.115,33.007L12.86,32.86l.147,1.256c.047.406,1.2,9.987,4.528,13.319s12.914,4.482,13.32,4.529l.145.017V60H19v2H45V60H33V51.977l.115-.013c.135-.016,1.292-.157,2.885-.455V49.474c-.661.13-1.283.239-1.828.325.494-3.162,1.738-8.81,3.777-10.849s7.688-3.282,10.85-3.778c-.494,3.161-1.738,8.809-3.778,10.849A9.264,9.264,0,0,1,42,47.794v2.139a12.424,12.424,0,0,0,4.435-2.5c3.333-3.332,4.482-12.913,4.529-13.319l.146-1.256ZM37.349,21.435c1.75-1.75,6.577-2.837,9.389-3.289-.451,2.812-1.536,7.637-3.289,9.39s-6.577,2.837-9.389,3.288C34.512,28.012,35.6,23.186,37.349,21.435ZM36.091,7.479c1.158-1.158,4.286-1.91,6.334-2.264-.354,2.049-1.106,5.178-2.263,6.335s-4.286,1.91-6.334,2.264C34.182,11.766,34.934,8.637,36.091,7.479ZM23.809,11.55c-1.158-1.157-1.91-4.286-2.264-6.335,2.048.354,5.177,1.106,6.335,2.264s1.909,4.288,2.263,6.335C28.1,13.461,24.969,12.71,23.809,11.55ZM20.521,27.536c-1.75-1.751-2.836-6.578-3.288-9.39,2.812.451,7.636,1.536,9.389,3.289s2.837,6.577,3.289,9.39C27.1,30.374,22.274,29.289,20.521,27.536ZM18.949,46.021c-2.036-2.037-3.281-7.687-3.777-10.849,3.162.5,8.812,1.741,10.849,3.778S29.3,46.637,29.8,49.8C26.637,49.3,20.989,48.06,18.949,46.021Z"></path></g></svg>